<svg width="24" height="24" viewBox="0 0 24 24" fill="none" xmlns="http://www.w3.org/2000/svg"><path fill-rule="evenodd" clip-rule="evenodd" d="M8.04 3H15.96C18.7435 3 21 5.25648 21 8.04V15.96C21 18.7435 18.7435 21 15.96 21H8.04C5.25648 21 3 18.7435 3 15.96V8.04C3 5.25648 5.25648 3 8.04 3ZM7.68 12C7.68 14.3859 9.61413 16.32 12 16.32C14.3859 16.32 16.32 14.3859 16.32 12C16.32 9.61413 14.3859 7.68 12 7.68C9.61413 7.68 7.68 9.61413 7.68 12ZM15.6 7.32C15.6 7.91647 16.0835 8.4 16.68 8.4C17.2765 8.4 17.76 7.91647 17.76 7.32C17.76 6.72353 17.2765 6.24 16.68 6.24C16.0835 6.24 15.6 6.72353 15.6 7.32ZM14.88 12C14.88 13.5906 13.5906 14.88 12 14.88C10.4094 14.88 9.12003 13.5906 9.12003 12C9.12003 10.4094 10.4094 9.11998 12 9.11998C13.5906 9.11998 14.88 10.4094 14.88 12Z" fill="#FFFFFF99"></path></svg>