<svg width="36" height="24" viewBox="0 0 36 24" fill="none" xmlns="http://www.w3.org/2000/svg"><rect width="36" height="24" rx="4" fill="white"></rect><path d="M22.9623 12.2975C23.4935 12.309 24.0278 12.274 24.5569 12.3157C25.0928 12.4157 25.222 13.2269 24.7459 13.4926C24.4211 13.6676 24.0352 13.5578 23.683 13.5886H22.9623V12.2975ZM24.8641 10.8361C24.9821 11.2527 24.5805 11.6268 24.1793 11.5694H22.9623C22.9708 11.1765 22.9456 10.7501 22.9746 10.3779C23.4622 10.3916 23.9542 10.3499 24.4389 10.3997C24.6472 10.452 24.8215 10.6232 24.8641 10.8361ZM27.793 4.65774C27.8157 5.45338 27.7963 6.29108 27.8028 7.10286C27.8013 10.4033 27.806 13.7036 27.8002 17.0041C27.7789 18.241 26.6827 19.3158 25.4543 19.3405C24.2248 19.3455 22.9951 19.3413 21.7654 19.3426V14.3531C23.1052 14.3462 24.4457 14.3672 25.785 14.3427C26.4063 14.3037 27.0868 13.8937 27.1157 13.21C27.1888 12.5234 26.5415 12.0484 25.9268 11.9734C25.6905 11.9673 25.6975 11.9045 25.9268 11.8772C26.513 11.7504 26.9734 11.1437 26.8009 10.536C26.6539 9.89694 25.9475 9.64958 25.36 9.6508C24.162 9.64267 22.9637 9.64967 21.7656 9.6473C21.7734 8.71582 21.7495 7.78334 21.7785 6.85254C21.8734 5.63796 22.9972 4.63633 24.2083 4.65806C25.4034 4.65788 26.5982 4.65788 27.793 4.65783V4.65774Z" fill="#58B03A"></path><path d="M8.22718 6.97807C8.25778 5.74313 9.35865 4.67717 10.5854 4.65912C11.8104 4.65535 13.0356 4.65857 14.2606 4.65748C14.2572 8.78934 14.2672 12.9217 14.2555 17.0533C14.2083 18.2732 13.1194 19.3189 11.9061 19.3405C10.6787 19.3449 9.4513 19.3411 8.22395 19.3423V14.1846C9.41612 14.4663 10.6663 14.5861 11.8825 14.3993C12.6095 14.2824 13.4049 13.9253 13.651 13.1711C13.8322 12.526 13.7302 11.847 13.7571 11.1848V9.64704H11.6524C11.6429 10.6641 11.6717 11.6829 11.6371 12.6987C11.5804 13.3231 10.9621 13.7198 10.3732 13.6986C9.64288 13.7063 8.19567 13.1693 8.19567 13.1693C8.19204 11.2638 8.21686 8.87745 8.22718 6.97825V6.97807Z" fill="#0F6EB6"></path><path d="M15.0458 10.2675C14.935 10.291 15.0236 9.89015 14.9952 9.73808C15.0028 8.77655 14.9795 7.81397 15.0081 6.85312C15.1028 5.6334 16.2352 4.62927 17.4512 4.65782H21.0321C21.0288 8.78968 21.0387 12.922 21.0271 17.0536C20.9798 18.2736 19.8909 19.3192 18.6774 19.3408C17.4501 19.3454 16.2226 19.3415 14.9952 19.3427V13.6917C15.8335 14.3795 16.9728 14.4866 18.0172 14.4885C18.8045 14.4882 19.5872 14.3668 20.3518 14.1852V13.15C19.4901 13.5794 18.4772 13.8522 17.5221 13.6054C16.8558 13.4396 16.3721 12.7957 16.3829 12.108C16.3057 11.393 16.7248 10.638 17.4276 10.4254C18.3 10.1523 19.2509 10.3612 20.0687 10.7163C20.2439 10.808 20.4218 10.9218 20.3517 10.629V9.81523C18.984 9.48981 17.5283 9.37006 16.1542 9.72408C15.7565 9.83628 15.3689 10.0064 15.0458 10.2676V10.2675Z" fill="#DE0D3D"></path></svg>