<svg width="36" height="24" viewBox="0 0 36 24" fill="none" xmlns="http://www.w3.org/2000/svg"><rect width="36" height="24" fill="white"></rect><path d="M16.4042 15.7633H14.4459L15.6698 8.24134H17.6284L16.4042 15.7633ZM12.7984 8.24134L10.9314 13.415L10.7105 12.3009L10.7107 12.3013L10.0517 8.9186C10.0517 8.9186 9.97203 8.24134 9.12274 8.24134H6.03622L6 8.3687C6 8.3687 6.94386 8.56508 8.04849 9.22846L9.7499 15.7635H11.7903L14.906 8.24134H12.7984ZM28.2018 15.7633H30L28.4322 8.24114H26.8579C26.131 8.24114 25.9539 8.8017 25.9539 8.8017L23.0332 15.7633H25.0746L25.4829 14.646H27.9724L28.2018 15.7633ZM26.0469 13.1025L27.0759 10.2876L27.6547 13.1025H26.0469ZM23.1863 10.0502L23.4658 8.4349C23.4658 8.4349 22.6034 8.10693 21.7044 8.10693C20.7326 8.10693 18.4247 8.53168 18.4247 10.5971C18.4247 12.5403 21.1334 12.5645 21.1334 13.5852C21.1334 14.6059 18.7038 14.423 17.902 13.7794L17.6109 15.4683C17.6109 15.4683 18.4853 15.8931 19.8213 15.8931C21.1577 15.8931 23.1738 15.2011 23.1738 13.3178C23.1738 11.3621 20.4408 11.18 20.4408 10.3297C20.441 9.47917 22.3483 9.58842 23.1863 10.0502Z" fill="#2566AF"></path><path d="M10.7107 12.3012L10.0517 8.91847C10.0517 8.91847 9.97203 8.24121 9.12274 8.24121H6.03622L6 8.36857C6 8.36857 7.4835 8.67602 8.90644 9.82793C10.267 10.9289 10.7107 12.3012 10.7107 12.3012Z" fill="#E6A540"></path></svg>