<svg width="36" height="24" viewBox="0 0 36 24" fill="none" xmlns="http://www.w3.org/2000/svg"><rect width="36" height="24" fill="white"></rect><path fill-rule="evenodd" clip-rule="evenodd" d="M12.7792 19.2309V20.2078V21.1848H12.351V20.9476C12.2152 21.1235 12.0091 21.2339 11.7291 21.2339C11.1769 21.2339 10.744 20.8049 10.744 20.2078C10.744 19.6113 11.1769 19.1818 11.7291 19.1818C12.0091 19.1818 12.2152 19.2922 12.351 19.4682V19.2309H12.7792ZM11.7823 19.5823C11.4117 19.5823 11.1849 19.8645 11.1849 20.2078C11.1849 20.5513 11.4117 20.8334 11.7823 20.8334C12.1365 20.8334 12.3755 20.5635 12.3755 20.2078C12.3755 19.8523 12.1365 19.5823 11.7823 19.5823ZM27.2485 20.2078C27.2485 19.8645 27.4753 19.5823 27.846 19.5823C28.2006 19.5823 28.4392 19.8523 28.4392 20.2078C28.4392 20.5635 28.2006 20.8334 27.846 20.8334C27.4753 20.8334 27.2485 20.5513 27.2485 20.2078ZM28.8434 18.4463V20.2078V21.1848H28.4147V20.9476C28.2788 21.1235 28.0728 21.2339 27.7927 21.2339C27.2405 21.2339 26.8076 20.8049 26.8076 20.2078C26.8076 19.6113 27.2405 19.1818 27.7927 19.1818C28.0728 19.1818 28.2788 19.2922 28.4147 19.4682V18.4463H28.8434ZM18.0942 19.5622C18.37 19.5622 18.5473 19.7339 18.5926 20.0362H17.5707C17.6164 19.7541 17.789 19.5622 18.0942 19.5622ZM17.1218 20.2078C17.1218 19.5987 17.5254 19.1818 18.1026 19.1818C18.6544 19.1818 19.0335 19.5987 19.0377 20.2078C19.0377 20.2649 19.0335 20.3183 19.0293 20.3712H17.567C17.6287 20.723 17.88 20.8498 18.1559 20.8498C18.3535 20.8498 18.5638 20.7759 18.7289 20.6453L18.9387 20.9602C18.6996 21.1604 18.428 21.2339 18.1314 21.2339C17.542 21.2339 17.1218 20.8292 17.1218 20.2078ZM23.2728 20.2078C23.2728 19.8645 23.4997 19.5823 23.8703 19.5823C24.2244 19.5823 24.4635 19.8523 24.4635 20.2078C24.4635 20.5635 24.2244 20.8334 23.8703 20.8334C23.4997 20.8334 23.2728 20.5513 23.2728 20.2078ZM24.8672 19.2309V20.2078V21.1848H24.439V20.9476C24.3027 21.1235 24.0971 21.2339 23.817 21.2339C23.2648 21.2339 22.8319 20.8049 22.8319 20.2078C22.8319 19.6113 23.2648 19.1818 23.817 19.1818C24.0971 19.1818 24.3027 19.2922 24.439 19.4682V19.2309H24.8672ZM20.8546 20.2078C20.8546 20.8007 21.2706 21.2339 21.9053 21.2339C22.2019 21.2339 22.3995 21.1684 22.6136 21.0009L22.4079 20.6575C22.2472 20.7721 22.0783 20.8334 21.8926 20.8334C21.5507 20.8292 21.2993 20.584 21.2993 20.2078C21.2993 19.8317 21.5507 19.5865 21.8926 19.5823C22.0783 19.5823 22.2472 19.6436 22.4079 19.7582L22.6136 19.4148C22.3995 19.2473 22.2019 19.1818 21.9053 19.1818C21.2706 19.1818 20.8546 19.6151 20.8546 20.2078ZM25.856 19.4682C25.9673 19.2964 26.1281 19.1818 26.3752 19.1818C26.4619 19.1818 26.5855 19.1982 26.6803 19.2351L26.5483 19.6356C26.4577 19.5987 26.3671 19.5865 26.2804 19.5865C26.0003 19.5865 25.8602 19.7662 25.8602 20.0895V21.1848H25.4316V19.2309H25.856V19.4682ZM14.897 19.3863C14.6909 19.2515 14.407 19.1818 14.0939 19.1818C13.595 19.1818 13.2738 19.419 13.2738 19.8074C13.2738 20.126 13.513 20.3225 13.9534 20.3838L14.1557 20.4123C14.3905 20.4451 14.5014 20.5064 14.5014 20.6168C14.5014 20.7679 14.3448 20.854 14.0524 20.854C13.7558 20.854 13.5417 20.76 13.3974 20.6495L13.1956 20.9803C13.4304 21.152 13.727 21.2339 14.0482 21.2339C14.6169 21.2339 14.9465 20.9681 14.9465 20.5962C14.9465 20.2527 14.6871 20.0731 14.2585 20.0118L14.0566 19.9828C13.8714 19.9585 13.7228 19.922 13.7228 19.791C13.7228 19.6478 13.8628 19.5622 14.0977 19.5622C14.349 19.5622 14.5923 19.6562 14.7117 19.7297L14.897 19.3863ZM19.9031 19.4682C20.0139 19.2964 20.1747 19.1818 20.4218 19.1818C20.5085 19.1818 20.6321 19.1982 20.7268 19.2351L20.5948 19.6356C20.5043 19.5987 20.4137 19.5865 20.327 19.5865C20.0469 19.5865 19.9069 19.7662 19.9069 20.0895V21.1848H19.4787V19.2309H19.9031V19.4682ZM16.7676 19.2309H16.0674V18.6381H15.6345V19.2309H15.2351V19.6192H15.6345V20.5106C15.6345 20.964 15.8118 21.2339 16.3183 21.2339C16.504 21.2339 16.7181 21.1768 16.8539 21.0828L16.7304 20.7188C16.6026 20.7923 16.4625 20.8292 16.3513 20.8292C16.1372 20.8292 16.0674 20.6982 16.0674 20.5021V19.6192H16.7676V19.2309ZM10.3653 19.9585V21.1848H9.93239V20.0974C9.93239 19.7662 9.79236 19.5823 9.49998 19.5823C9.21561 19.5823 9.01802 19.7625 9.01802 20.1017V21.1848H8.58514V20.0974C8.58514 19.7662 8.44133 19.5823 8.15696 19.5823C7.86412 19.5823 7.6746 19.7625 7.6746 20.1017V21.1848H7.24219V19.2309H7.67083V19.4719C7.83164 19.2431 8.03723 19.1818 8.24752 19.1818C8.54836 19.1818 8.76249 19.3128 8.89829 19.5294C9.0798 19.2553 9.33917 19.1776 9.59054 19.1818C10.0687 19.186 10.3653 19.4967 10.3653 19.9585Z" fill="#231F20"></path><path d="M21.2455 15.9109H14.7559V4.33936H21.2455V15.9109Z" fill="#FF5F00"></path><path d="M15.1671 10.1254C15.1671 7.77803 16.2748 5.68706 17.9997 4.33959C16.7383 3.35424 15.1463 2.76611 13.4162 2.76611C9.32028 2.76611 6 6.06093 6 10.1254C6 14.1898 9.32028 17.4846 13.4162 17.4846C15.1463 17.4846 16.7383 16.8965 17.9997 15.9112C16.2748 14.5637 15.1671 12.4727 15.1671 10.1254Z" fill="#EB001B"></path><path d="M30.0003 10.1254C30.0003 14.1898 26.68 17.4846 22.584 17.4846C20.8539 17.4846 19.2619 16.8965 18 15.9112C19.7254 14.5637 20.8332 12.4727 20.8332 10.1254C20.8332 7.77803 19.7254 5.68706 18 4.33959C19.2619 3.35424 20.8539 2.76611 22.584 2.76611C26.68 2.76611 30.0003 6.06093 30.0003 10.1254Z" fill="#F79E1B"></path></svg>