<svg width="36" height="24" viewBox="0 0 36 24" fill="none" xmlns="http://www.w3.org/2000/svg"><rect width="36" height="24" fill="white"></rect><path fill-rule="evenodd" clip-rule="evenodd" d="M15.6687 18.1363L15.8894 16.6872L15.3977 16.6753H13.0498L14.6815 5.98169C14.6866 5.9493 14.7031 5.91924 14.7271 5.89786C14.7512 5.87648 14.7819 5.86475 14.8141 5.86475H18.773C20.0875 5.86475 20.9945 6.14738 21.468 6.70532C21.69 6.96706 21.8314 7.24066 21.8998 7.54162C21.9716 7.8575 21.9728 8.23483 21.9028 8.69514L21.8977 8.72862V9.0236L22.1197 9.15362C22.3067 9.25614 22.4553 9.37344 22.5692 9.50774C22.7591 9.7316 22.8819 10.0161 22.9338 10.3532C22.9875 10.7 22.9698 11.1128 22.8819 11.58C22.7806 12.1174 22.6169 12.5856 22.3957 12.9685C22.1923 13.3214 21.9332 13.6142 21.6254 13.841C21.3317 14.0566 20.9827 14.2202 20.588 14.3249C20.2056 14.4278 19.7696 14.4797 19.2913 14.4797H18.9832C18.763 14.4797 18.549 14.5617 18.381 14.7087C18.2125 14.8588 18.1012 15.0638 18.067 15.288L18.0437 15.4185L17.6537 17.9728L17.6361 18.0665C17.6314 18.0962 17.6233 18.111 17.6115 18.121C17.601 18.1302 17.5858 18.1363 17.5711 18.1363H15.6687Z" fill="#28356A"></path><path fill-rule="evenodd" clip-rule="evenodd" d="M22.3308 8.7627C22.3191 8.84078 22.3055 8.92057 22.2903 9.00256C21.7682 11.7732 19.982 12.7304 17.7007 12.7304H16.5392C16.2602 12.7304 16.025 12.9397 15.9816 13.2241L15.2185 18.2274C15.1902 18.4142 15.3295 18.5825 15.5118 18.5825H17.572C17.8159 18.5825 18.0231 18.3993 18.0616 18.1507L18.0818 18.0425L18.4697 15.4983L18.4946 15.3588C18.5326 15.1092 18.7403 14.9259 18.9842 14.9259H19.2923C21.2883 14.9259 22.8508 14.0884 23.3075 11.6646C23.4982 10.6521 23.3995 9.8066 22.8947 9.21201C22.7419 9.03275 22.5524 8.88391 22.3308 8.7627Z" fill="#298FC2"></path><path fill-rule="evenodd" clip-rule="evenodd" d="M21.7845 8.53743C21.7047 8.51336 21.6224 8.49161 21.538 8.47193C21.4531 8.45275 21.3662 8.43576 21.2767 8.42085C20.9635 8.36856 20.6203 8.34375 20.2528 8.34375H17.1497C17.0732 8.34375 17.0007 8.36159 16.9358 8.39385C16.7926 8.46497 16.6863 8.605 16.6605 8.77644L16.0004 13.098L15.9814 13.224C16.0248 12.9395 16.26 12.7302 16.539 12.7302H17.7005C19.9818 12.7302 21.7681 11.7725 22.2901 9.00238C22.3057 8.92039 22.3189 8.84059 22.3306 8.76251C22.1985 8.69005 22.0555 8.6281 21.9014 8.57531C21.8633 8.56223 21.8241 8.54965 21.7845 8.53743Z" fill="#22284F"></path><path fill-rule="evenodd" clip-rule="evenodd" d="M16.6603 8.77661C16.6861 8.60517 16.7924 8.46514 16.9355 8.39451C17.0009 8.36213 17.073 8.34429 17.1495 8.34429H20.2526C20.6201 8.34429 20.9633 8.36921 21.2765 8.42151C21.366 8.4363 21.4529 8.45341 21.5378 8.47259C21.6222 8.49214 21.7045 8.51401 21.7843 8.53796C21.8239 8.55018 21.8631 8.56289 21.9016 8.57548C22.0556 8.62827 22.1988 8.69071 22.3308 8.76268C22.4862 7.73881 22.3295 7.04169 21.794 6.41043C21.2034 5.71539 20.1378 5.41797 18.7741 5.41797H14.815C14.5364 5.41797 14.2988 5.62729 14.2558 5.91225L12.6068 16.7158C12.5742 16.9296 12.7337 17.1224 12.9423 17.1224H15.3865L16.6603 8.77661Z" fill="#28356A"></path></svg>