<svg width="24" height="24" viewBox="0 0 24 24" fill="none" xmlns="http://www.w3.org/2000/svg"><path d="M19.4783 10.4514C18.0018 10.4514 16.5656 9.97148 15.3844 9.08379V15.2766C15.3844 18.4389 12.948 21 9.94219 21C6.93633 21 4.5 18.4389 4.5 15.2766C4.5 12.1143 6.93633 9.55312 9.94219 9.55312C10.2428 9.55312 10.5346 9.57949 10.8193 9.62871V12.9088C10.5469 12.8016 10.2568 12.7471 9.96504 12.7471C8.62383 12.7471 7.53574 13.8896 7.53574 15.3012C7.53574 16.7109 8.62383 17.8553 9.96504 17.8553C11.3045 17.8553 12.3926 16.7109 12.3926 15.3012V3H15.4283C15.4283 5.36426 17.2512 7.28027 19.4994 7.28027V10.4496L19.4783 10.4514Z" fill="#21242B"></path></svg>