<svg width="36" height="24" viewBox="0 0 36 24" fill="none" xmlns="http://www.w3.org/2000/svg"><rect width="36" height="24" fill="#1F72CD"></rect><path fill-rule="evenodd" clip-rule="evenodd" d="M7.08736 8.37207L3.90625 15.6188H7.71449L8.1866 14.4634H9.26574L9.73785 15.6188H13.9296V14.737L14.3032 15.6188H16.4715L16.845 14.7183V15.6188H25.5628L26.6228 14.4934L27.6154 15.6188L32.0931 15.6281L28.9019 12.0157L32.0931 8.37207H27.6849L26.653 9.4767L25.6916 8.37207H16.2078L15.3934 10.2425L14.56 8.37207H10.7597V9.22393L10.3369 8.37207H7.08736ZM7.82457 9.40088H9.68088L11.7909 14.3149V9.40088H13.8244L15.4542 12.9242L16.9562 9.40088H18.9795V14.6009H17.7484L17.7383 10.5262L15.9434 14.6009H14.8421L13.0371 10.5262V14.6009H10.5043L10.0241 13.4351H7.42997L6.95079 14.5999H5.59375L7.82457 9.40088ZM25.1118 9.40112H20.1056V14.5981H25.0343L26.6228 12.8757L28.154 14.5981H29.7546L27.4282 12.0147L29.7546 9.40112H28.2234L26.6429 11.1037L25.1118 9.40112ZM8.72773 10.2808L7.87305 12.3575H9.58141L8.72773 10.2808ZM21.3419 11.427V10.4778V10.4769H24.4656L25.8286 11.995L24.4052 13.5214H21.3419V12.4851H24.0729V11.427H21.3419Z" fill="white"></path></svg>