<svg width="36" height="24" viewBox="0 0 36 24" fill="none" xmlns="http://www.w3.org/2000/svg"><rect width="36" height="24" rx="4" fill="white"></rect><path d="M13.1504 22.9987L35.0004 16.3862V19.9987C35.0004 21.6556 33.6573 22.9987 32.0004 22.9987H13.1504Z" fill="#FD6020"></path><path fill-rule="evenodd" clip-rule="evenodd" d="M31.8532 9.13135C33.0553 9.13135 33.7164 9.7048 33.7164 10.788C33.7765 11.6163 33.2356 12.3172 32.5143 12.4446L34.1372 14.8021H32.875L31.4926 12.5083H31.3724V14.8021H30.3506V9.13135H31.8532ZM31.3721 11.7438H31.6726C32.3337 11.7438 32.6343 11.4252 32.6343 10.8518C32.6343 10.342 32.3337 10.0234 31.6726 10.0234H31.3721V11.7438ZM26.8037 14.8021H29.6887V13.8464H27.8255V12.3172H29.6286V11.3614H27.8255V10.0871H29.6887V9.13135H26.8037V14.8021ZM23.7983 12.9544L22.4159 9.13135H21.334L23.5579 14.9296H24.0988L26.3227 9.13135H25.2408L23.7983 12.9544ZM11.5976 11.9987C11.5976 13.5916 12.7997 14.9297 14.3023 14.9297C14.7831 14.9297 15.2038 14.8023 15.6246 14.6111V13.3368C15.3241 13.7191 14.9033 13.9739 14.4225 13.9739C13.4608 13.9739 12.6795 13.2093 12.6795 12.1899V12.0624C12.6194 11.043 13.4007 10.1509 14.3624 10.0872C14.8432 10.0872 15.3241 10.3421 15.6246 10.7244V9.45004C15.2639 9.19518 14.7831 9.13146 14.3624 9.13146C12.7997 9.00403 11.5976 10.3421 11.5976 11.9987ZM9.73398 11.2978C9.13294 11.043 8.95262 10.9155 8.95262 10.5969C9.01273 10.2146 9.31325 9.89606 9.67388 9.95978C9.9744 9.95978 10.2749 10.1509 10.5153 10.4058L11.0563 9.64119C10.6355 9.25889 10.0946 9.00402 9.55367 9.00402C8.7122 8.94031 7.99095 9.64119 7.93085 10.5332V10.5969C7.93085 11.3615 8.23137 11.8076 9.19304 12.1261C9.43346 12.1899 9.67388 12.3173 9.91429 12.4447C10.0946 12.5722 10.2148 12.7633 10.2148 13.0182C10.2148 13.4642 9.85419 13.8465 9.49356 13.8465H9.43346C8.95262 13.8465 8.53189 13.5279 8.35158 13.0819L7.69043 13.7828C8.05106 14.4837 8.77231 14.866 9.49356 14.866C10.4552 14.9297 11.2366 14.1651 11.2967 13.1456V12.9545C11.2366 12.1899 10.9361 11.8076 9.73398 11.2978ZM6.24822 14.8022H7.27V9.13145H6.24822V14.8022ZM1.5 9.13146H3.00261H3.30313C4.74564 9.19518 5.88762 10.4695 5.82752 11.9987C5.82752 12.827 5.46689 13.5916 4.86585 14.1651C4.32491 14.6111 3.66376 14.866 3.00261 14.8023H1.5V9.13146ZM2.82201 13.8463C3.30284 13.91 3.84378 13.7189 4.20441 13.4003C4.56504 13.018 4.74535 12.5083 4.74535 11.9348C4.74535 11.4251 4.56504 10.9153 4.20441 10.533C3.84378 10.2145 3.30284 10.0233 2.82201 10.087H2.52148V13.8463H2.82201Z" fill="black"></path><path fill-rule="evenodd" clip-rule="evenodd" d="M18.6896 9C17.187 9 15.9248 10.2743 15.9248 11.931C15.9248 13.5239 17.1269 14.8619 18.6896 14.9257C20.2523 14.9894 21.4544 13.6513 21.5145 11.9947C21.4544 10.3381 20.2523 9 18.6896 9V9Z" fill="#FD6020"></path></svg>