<svg width="36" height="24" viewBox="0 0 36 24" fill="none" xmlns="http://www.w3.org/2000/svg"><rect width="36" height="24" rx="4" fill="white"></rect><path fill-rule="evenodd" clip-rule="evenodd" d="M16.4955 19.5H19.1811C23.3733 19.5 26.7139 16.1741 26.8449 12.0657V12.0005C26.7794 7.82681 23.3733 4.43571 19.1811 4.50093H16.168C12.1723 4.63135 9.02822 8.02245 9.15922 12.0657C9.15922 16.1089 12.4344 19.4348 16.4955 19.5ZM10.4688 12.0004C10.4688 8.60935 13.2854 5.80518 16.6915 5.80518C20.0976 5.80518 22.9142 8.60935 22.9142 12.0004C22.9142 15.3915 20.0976 18.1957 16.6915 18.1957C13.2854 18.1957 10.4688 15.3915 10.4688 12.0004ZM17.6748 16.1742V7.89209C19.9674 8.47901 21.4085 10.7615 20.8189 13.0439C20.4259 14.6091 19.2469 15.7829 17.6748 16.1742ZM12.6308 10.957C12.0412 13.2395 13.4168 15.5872 15.7094 16.1741V7.892C14.2028 8.28328 13.0238 9.45712 12.6308 10.957Z" fill="#0069AA"></path></svg>